<svg xmlns="http://www.w3.org/2000/svg" xmlns:xlink="http://www.w3.org/1999/xlink" version="1.1" class="marks" width="926" height="419" viewBox="0 0 926 419"><rect width="926" height="419" fill="white"/><g fill="none" stroke-miterlimit="10" transform="translate(47,10)"><g class="mark-group role-frame root" role="graphics-object" aria-roledescription="group mark container"><g transform="translate(0,0)"><path class="background" aria-hidden="true" d="M0.5,0.5h680v300h-680Z" stroke="#ddd"/><g><g class="mark-group role-axis" role="graphics-symbol" aria-roledescription="axis" aria-label="Y-axis for a linear scale with values from 0.00 to 0.22"><g transform="translate(0.5,0.5)"><path class="background" aria-hidden="true" d="M0,0h0v0h0Z" pointer-events="none"/><g><g class="mark-rule role-axis-grid" pointer-events="none"><line transform="translate(0,300)" x2="680" y2="0" stroke="#ddd" stroke-width="1" opacity="1"/><line transform="translate(0,273)" x2="680" y2="0" stroke="#ddd" stroke-width="1" opacity="1"/><line transform="translate(0,245)" x2="680" y2="0" stroke="#ddd" stroke-width="1" opacity="1"/><line transform="translate(0,218)" x2="680" y2="0" stroke="#ddd" stroke-width="1" opacity="1"/><line transform="translate(0,191)" x2="680" y2="0" stroke="#ddd" stroke-width="1" opacity="1"/><line transform="translate(0,164)" x2="680" y2="0" stroke="#ddd" stroke-width="1" opacity="1"/><line transform="translate(0,136)" x2="680" y2="0" stroke="#ddd" stroke-width="1" opacity="1"/><line transform="translate(0,109)" x2="680" y2="0" stroke="#ddd" stroke-width="1" opacity="1"/><line transform="translate(0,82)" x2="680" y2="0" stroke="#ddd" stroke-width="1" opacity="1"/><line transform="translate(0,55)" x2="680" y2="0" stroke="#ddd" stroke-width="1" opacity="1"/><line transform="translate(0,27)" x2="680" y2="0" stroke="#ddd" stroke-width="1" opacity="1"/><line transform="translate(0,0)" x2="680" y2="0" stroke="#ddd" stroke-width="1" opacity="1"/></g></g><path class="foreground" aria-hidden="true" d="" pointer-events="none" display="none"/></g></g><g class="mark-group role-axis" role="graphics-symbol" aria-roledescription="axis" aria-label="X-axis titled 'Trimestre (Código)' for a discrete scale with 34 values: 201201, 201202, 201203, 201204, 201301, ending with 202002"><g transform="translate(0.5,300.5)"><path class="background" aria-hidden="true" d="M0,0h0v0h0Z" pointer-events="none"/><g><g class="mark-rule role-axis-tick" pointer-events="none"><line transform="translate(10,0)" x2="0" y2="5" stroke="#888" stroke-width="1" opacity="1"/><line transform="translate(30,0)" x2="0" y2="5" stroke="#888" stroke-width="1" opacity="1"/><line transform="translate(50,0)" x2="0" y2="5" stroke="#888" stroke-width="1" opacity="1"/><line transform="translate(70,0)" x2="0" y2="5" stroke="#888" stroke-width="1" opacity="1"/><line transform="translate(90,0)" x2="0" y2="5" stroke="#888" stroke-width="1" opacity="1"/><line transform="translate(110,0)" x2="0" y2="5" stroke="#888" stroke-width="1" opacity="1"/><line transform="translate(130,0)" x2="0" y2="5" stroke="#888" stroke-width="1" opacity="1"/><line transform="translate(150,0)" x2="0" y2="5" stroke="#888" stroke-width="1" opacity="1"/><line transform="translate(170,0)" x2="0" y2="5" stroke="#888" stroke-width="1" opacity="1"/><line transform="translate(190,0)" x2="0" y2="5" stroke="#888" stroke-width="1" opacity="1"/><line transform="translate(210,0)" x2="0" y2="5" stroke="#888" stroke-width="1" opacity="1"/><line transform="translate(230,0)" x2="0" y2="5" stroke="#888" stroke-width="1" opacity="1"/><line transform="translate(250,0)" x2="0" y2="5" stroke="#888" stroke-width="1" opacity="1"/><line transform="translate(270,0)" x2="0" y2="5" stroke="#888" stroke-width="1" opacity="1"/><line transform="translate(290,0)" x2="0" y2="5" stroke="#888" stroke-width="1" opacity="1"/><line transform="translate(310,0)" x2="0" y2="5" stroke="#888" stroke-width="1" opacity="1"/><line transform="translate(330,0)" x2="0" y2="5" stroke="#888" stroke-width="1" opacity="1"/><line transform="translate(350,0)" x2="0" y2="5" stroke="#888" stroke-width="1" opacity="1"/><line transform="translate(370,0)" x2="0" y2="5" stroke="#888" stroke-width="1" opacity="1"/><line transform="translate(390,0)" x2="0" y2="5" stroke="#888" stroke-width="1" opacity="1"/><line transform="translate(410,0)" x2="0" y2="5" stroke="#888" stroke-width="1" opacity="1"/><line transform="translate(430,0)" x2="0" y2="5" stroke="#888" stroke-width="1" opacity="1"/><line transform="translate(450,0)" x2="0" y2="5" stroke="#888" stroke-width="1" opacity="1"/><line transform="translate(470,0)" x2="0" y2="5" stroke="#888" stroke-width="1" opacity="1"/><line transform="translate(490,0)" x2="0" y2="5" stroke="#888" stroke-width="1" opacity="1"/><line transform="translate(510,0)" x2="0" y2="5" stroke="#888" stroke-width="1" opacity="1"/><line transform="translate(530,0)" x2="0" y2="5" stroke="#888" stroke-width="1" opacity="1"/><line transform="translate(550,0)" x2="0" y2="5" stroke="#888" stroke-width="1" opacity="1"/><line transform="translate(570,0)" x2="0" y2="5" stroke="#888" stroke-width="1" opacity="1"/><line transform="translate(590,0)" x2="0" y2="5" stroke="#888" stroke-width="1" opacity="1"/><line transform="translate(610,0)" x2="0" y2="5" stroke="#888" stroke-width="1" opacity="1"/><line transform="translate(630,0)" x2="0" y2="5" stroke="#888" stroke-width="1" opacity="1"/><line transform="translate(650,0)" x2="0" y2="5" stroke="#888" stroke-width="1" opacity="1"/><line transform="translate(670,0)" x2="0" y2="5" stroke="#888" stroke-width="1" opacity="1"/></g><g class="mark-text role-axis-label" pointer-events="none"><text text-anchor="end" transform="translate(10,7) rotate(270) translate(0,3)" font-family="sans-serif" font-size="10px" fill="#000" opacity="1">201201</text><text text-anchor="end" transform="translate(30,7) rotate(270) translate(0,3)" font-family="sans-serif" font-size="10px" fill="#000" opacity="1">201202</text><text text-anchor="end" transform="translate(50,7) rotate(270) translate(0,3)" font-family="sans-serif" font-size="10px" fill="#000" opacity="1">201203</text><text text-anchor="end" transform="translate(70,7) rotate(270) translate(0,3)" font-family="sans-serif" font-size="10px" fill="#000" opacity="1">201204</text><text text-anchor="end" transform="translate(90,7) rotate(270) translate(0,3)" font-family="sans-serif" font-size="10px" fill="#000" opacity="1">201301</text><text text-anchor="end" transform="translate(110,7) rotate(270) translate(0,3)" font-family="sans-serif" font-size="10px" fill="#000" opacity="1">201302</text><text text-anchor="end" transform="translate(130,7) rotate(270) translate(0,3)" font-family="sans-serif" font-size="10px" fill="#000" opacity="1">201303</text><text text-anchor="end" transform="translate(150,7) rotate(270) translate(0,3)" font-family="sans-serif" font-size="10px" fill="#000" opacity="1">201304</text><text text-anchor="end" transform="translate(170,7) rotate(270) translate(0,3)" font-family="sans-serif" font-size="10px" fill="#000" opacity="1">201401</text><text text-anchor="end" transform="translate(190,7) rotate(270) translate(0,3)" font-family="sans-serif" font-size="10px" fill="#000" opacity="1">201402</text><text text-anchor="end" transform="translate(210,7) rotate(270) translate(0,3)" font-family="sans-serif" font-size="10px" fill="#000" opacity="1">201403</text><text text-anchor="end" transform="translate(230,7) rotate(270) translate(0,3)" font-family="sans-serif" font-size="10px" fill="#000" opacity="1">201404</text><text text-anchor="end" transform="translate(250,7) rotate(270) translate(0,3)" font-family="sans-serif" font-size="10px" fill="#000" opacity="1">201501</text><text text-anchor="end" transform="translate(270,7) rotate(270) translate(0,3)" font-family="sans-serif" font-size="10px" fill="#000" opacity="1">201502</text><text text-anchor="end" transform="translate(290,7) rotate(270) translate(0,3)" font-family="sans-serif" font-size="10px" fill="#000" opacity="1">201503</text><text text-anchor="end" transform="translate(310,7) rotate(270) translate(0,3)" font-family="sans-serif" font-size="10px" fill="#000" opacity="1">201504</text><text text-anchor="end" transform="translate(330,7) rotate(270) translate(0,3)" font-family="sans-serif" font-size="10px" fill="#000" opacity="1">201601</text><text text-anchor="end" transform="translate(350,7) rotate(270) translate(0,3)" font-family="sans-serif" font-size="10px" fill="#000" opacity="1">201602</text><text text-anchor="end" transform="translate(370,7) rotate(270) translate(0,3)" font-family="sans-serif" font-size="10px" fill="#000" opacity="1">201603</text><text text-anchor="end" transform="translate(390,7) rotate(270) translate(0,3)" font-family="sans-serif" font-size="10px" fill="#000" opacity="1">201604</text><text text-anchor="end" transform="translate(410,7) rotate(270) translate(0,3)" font-family="sans-serif" font-size="10px" fill="#000" opacity="1">201701</text><text text-anchor="end" transform="translate(430,7) rotate(270) translate(0,3)" font-family="sans-serif" font-size="10px" fill="#000" opacity="1">201702</text><text text-anchor="end" transform="translate(450,7) rotate(270) translate(0,3)" font-family="sans-serif" font-size="10px" fill="#000" opacity="1">201703</text><text text-anchor="end" transform="translate(470,7) rotate(270) translate(0,3)" font-family="sans-serif" font-size="10px" fill="#000" opacity="1">201704</text><text text-anchor="end" transform="translate(490,7) rotate(270) translate(0,3)" font-family="sans-serif" font-size="10px" fill="#000" opacity="1">201801</text><text text-anchor="end" transform="translate(510,7) rotate(270) translate(0,3)" font-family="sans-serif" font-size="10px" fill="#000" opacity="1">201802</text><text text-anchor="end" transform="translate(530,7) rotate(270) translate(0,3)" font-family="sans-serif" font-size="10px" fill="#000" opacity="1">201803</text><text text-anchor="end" transform="translate(550,7) rotate(270) translate(0,3)" font-family="sans-serif" font-size="10px" fill="#000" opacity="1">201804</text><text text-anchor="end" transform="translate(570,7) rotate(270) translate(0,3)" font-family="sans-serif" font-size="10px" fill="#000" opacity="1">201901</text><text text-anchor="end" transform="translate(590,7) rotate(270) translate(0,3)" font-family="sans-serif" font-size="10px" fill="#000" opacity="1">201902</text><text text-anchor="end" transform="translate(610,7) rotate(270) translate(0,3)" font-family="sans-serif" font-size="10px" fill="#000" opacity="1">201903</text><text text-anchor="end" transform="translate(630,7) rotate(270) translate(0,3)" font-family="sans-serif" font-size="10px" fill="#000" opacity="1">201904</text><text text-anchor="end" transform="translate(650,7) rotate(270) translate(0,3)" font-family="sans-serif" font-size="10px" fill="#000" opacity="1">202001</text><text text-anchor="end" transform="translate(670,7) rotate(270) translate(0,3)" font-family="sans-serif" font-size="10px" fill="#000" opacity="1">202002</text></g><g class="mark-rule role-axis-domain" pointer-events="none"><line transform="translate(0,0)" x2="680" y2="0" stroke="#888" stroke-width="1" opacity="1"/></g><g class="mark-text role-axis-title" pointer-events="none"><text text-anchor="middle" transform="translate(340,53.369140625)" font-family="sans-serif" font-size="11px" font-weight="bold" fill="#000" opacity="1">Trimestre (Código)</text></g></g><path class="foreground" aria-hidden="true" d="" pointer-events="none" display="none"/></g></g><g class="mark-group role-axis" role="graphics-symbol" aria-roledescription="axis" aria-label="Y-axis titled 'PercentualDesocupapdo' for a linear scale with values from 0.00 to 0.22"><g transform="translate(0.5,0.5)"><path class="background" aria-hidden="true" d="M0,0h0v0h0Z" pointer-events="none"/><g><g class="mark-rule role-axis-tick" pointer-events="none"><line transform="translate(0,300)" x2="-5" y2="0" stroke="#888" stroke-width="1" opacity="1"/><line transform="translate(0,273)" x2="-5" y2="0" stroke="#888" stroke-width="1" opacity="1"/><line transform="translate(0,245)" x2="-5" y2="0" stroke="#888" stroke-width="1" opacity="1"/><line transform="translate(0,218)" x2="-5" y2="0" stroke="#888" stroke-width="1" opacity="1"/><line transform="translate(0,191)" x2="-5" y2="0" stroke="#888" stroke-width="1" opacity="1"/><line transform="translate(0,164)" x2="-5" y2="0" stroke="#888" stroke-width="1" opacity="1"/><line transform="translate(0,136)" x2="-5" y2="0" stroke="#888" stroke-width="1" opacity="1"/><line transform="translate(0,109)" x2="-5" y2="0" stroke="#888" stroke-width="1" opacity="1"/><line transform="translate(0,82)" x2="-5" y2="0" stroke="#888" stroke-width="1" opacity="1"/><line transform="translate(0,55)" x2="-5" y2="0" stroke="#888" stroke-width="1" opacity="1"/><line transform="translate(0,27)" x2="-5" y2="0" stroke="#888" stroke-width="1" opacity="1"/><line transform="translate(0,0)" x2="-5" y2="0" stroke="#888" stroke-width="1" opacity="1"/></g><g class="mark-text role-axis-label" pointer-events="none"><text text-anchor="end" transform="translate(-7,303)" font-family="sans-serif" font-size="10px" fill="#000" opacity="1">0.00</text><text text-anchor="end" transform="translate(-7,275.7272727272727)" font-family="sans-serif" font-size="10px" fill="#000" opacity="1">0.02</text><text text-anchor="end" transform="translate(-7,248.45454545454544)" font-family="sans-serif" font-size="10px" fill="#000" opacity="1">0.04</text><text text-anchor="end" transform="translate(-7,221.1818181818182)" font-family="sans-serif" font-size="10px" fill="#000" opacity="1">0.06</text><text text-anchor="end" transform="translate(-7,193.9090909090909)" font-family="sans-serif" font-size="10px" fill="#000" opacity="1">0.08</text><text text-anchor="end" transform="translate(-7,166.63636363636363)" font-family="sans-serif" font-size="10px" fill="#000" opacity="1">0.10</text><text text-anchor="end" transform="translate(-7,139.36363636363637)" font-family="sans-serif" font-size="10px" fill="#000" opacity="1">0.12</text><text text-anchor="end" transform="translate(-7,112.09090909090907)" font-family="sans-serif" font-size="10px" fill="#000" opacity="1">0.14</text><text text-anchor="end" transform="translate(-7,84.81818181818181)" font-family="sans-serif" font-size="10px" fill="#000" opacity="1">0.16</text><text text-anchor="end" transform="translate(-7,57.54545454545456)" font-family="sans-serif" font-size="10px" fill="#000" opacity="1">0.18</text><text text-anchor="end" transform="translate(-7,30.27272727272725)" font-family="sans-serif" font-size="10px" fill="#000" opacity="1">0.20</text><text text-anchor="end" transform="translate(-7,3)" font-family="sans-serif" font-size="10px" fill="#000" opacity="1">0.22</text></g><g class="mark-rule role-axis-domain" pointer-events="none"><line transform="translate(0,300)" x2="0" y2="-300" stroke="#888" stroke-width="1" opacity="1"/></g><g class="mark-text role-axis-title" pointer-events="none"><text text-anchor="middle" transform="translate(-30.462890625,150) rotate(-90) translate(0,-2)" font-family="sans-serif" font-size="11px" font-weight="bold" fill="#000" opacity="1">PercentualDesocupapdo</text></g></g><path class="foreground" aria-hidden="true" d="" pointer-events="none" display="none"/></g></g><g class="mark-group role-scope pathgroup" role="graphics-object" aria-roledescription="group mark container"><g transform="translate(0,0)"><path class="background" aria-hidden="true" d="M0,0h680v300h-680Z"/><g><g class="mark-line role-mark marks" clip-path="url(#clip1)" role="graphics-symbol" aria-roledescription="line mark container"><path d="M10,191.71531686055116L30,197.48850371418465L50,203.65167003771927L70,206.54932205498196L90,191.36259285790842L110,198.76727261518116L130,205.5136839356006L150,215.82958184953745L170,202.36730125054268L190,206.73726070470735L210,207.72989503386833L230,211.5475385400997L250,191.89700663181625L270,186.87474444595884L290,179.01027639683332L310,178.0115022750266L330,151.52595702877773L350,145.80104592469363L370,139.17346079668226L390,136.09664931250774L410,112.68658302081272L430,122.76344345309866L450,130.54823453826L470,139.21367135992637L490,121.07251501998682L510,130.33319795816865L530,137.97684044861595L550,142.01329903412184L570,126.555819477435L590,135.93902610376364L610,139.47788091135683L630,150.61950781833272L650,133.23282600927683L670,118.57046404883866" stroke="#eeca3b" stroke-width="2"/></g></g><path class="foreground" aria-hidden="true" d="" display="none"/></g><g transform="translate(0,0)"><path class="background" aria-hidden="true" d="M0,0h680v300h-680Z"/><g><g class="mark-line role-mark marks" clip-path="url(#clip2)" role="graphics-symbol" aria-roledescription="line mark container"><path d="M10,178.75836421822225L30,188.77685279687168L50,193.52098044792913L70,199.91159766036546L90,182.9978628092587L110,187.0424676876289L130,196.94614644366752L150,211.8362015794503L170,194.7033694921762L190,201.2687207860346L210,205.47298974922853L230,207.32395702393092L250,181.65195607894555L270,183.39284668969145L290,179.25685883316234L310,182.11433641779698L330,157.0464270187405L350,146.64427619969314L370,143.82935500254L390,126.3156093498668L410,106.07738599180774L430,129.73623814315226L450,133.24733016243408L470,145.26112185686594L490,126.05477424130227L510,134.82761704601322L530,142.1471524584368L550,140.55842903480323L570,121.62501100061591L590,138.6180682227777L610,140.0112500540864L630,156.0135516657259L650,137.47641049001047L670,139.41699987101728" stroke="#b279a2" stroke-width="2"/></g></g><path class="foreground" aria-hidden="true" d="" display="none"/></g><g transform="translate(0,0)"><path class="background" aria-hidden="true" d="M0,0h680v300h-680Z"/><g><g class="mark-line role-mark marks" clip-path="url(#clip3)" role="graphics-symbol" aria-roledescription="line mark container"><path d="M10,167.79672672259665L30,168.8569008021615L50,172.65298696967167L70,173.31274745096837L90,151.28677528930908L110,163.86602870813397L130,178.06974319012633L150,192.65458153703904L170,173.07588945788973L190,180.52446695531415L210,183.3805196922758L230,187.60813292329473L250,169.90684279354076L270,160.25626066537367L290,152.99168163923454L310,157.81599803606184L330,125.95751884126229L350,120.23190194868137L370,108.01876256421681L390,104.4714497156659L410,78.73259757258408L430,84.14745381871637L450,98.10305618725363L470,111.56542529480863L490,83.43258337558773L510,97.86583319035906L530,103.93916199419183L550,104.49598768824816L570,91.91764118234727L590,100.91182638825548L610,103.03091062204088L630,114.99170570756728L650,87.76237914935865L670,80.63432351253137" stroke="#eeca3b" stroke-width="2"/></g></g><path class="foreground" aria-hidden="true" d="" display="none"/></g><g transform="translate(0,0)"><path class="background" aria-hidden="true" d="M0,0h680v300h-680Z"/><g><g class="mark-line role-mark marks" clip-path="url(#clip4)" role="graphics-symbol" aria-roledescription="line mark container"><path d="M10,191.94410166622515L30,199.09593520762948L50,206.33448184468597L70,209.69801692260012L90,196.88811921643008L110,201.63728487081775L130,205.21936649766573L150,215.1196550652251L170,203.86278223238278L190,206.57526492877582L210,206.4152606396374L230,210.00319404113003L250,191.12702366127024L270,187.07642078263217L290,176.8185610587577L310,169.29593507510495L330,144.90636008144045L350,140.37641264676137L370,132.56848199819046L390,131.71336833065865L410,106.93725632690726L430,114.78271032588545L450,119.52042340160453L470,127.92719222537453L490,112.11876863958544L510,119.79860352809048L530,129.58132913935364L550,134.72295514511862L570,119.75727312781228L590,130.87120424391136L610,137.7351438893727L630,145.04905928722226L650,130.59453824987864L670,110.55794333850544" stroke="#bab0ac" stroke-width="2"/></g></g><path class="foreground" aria-hidden="true" d="" display="none"/></g><g transform="translate(0,0)"><path class="background" aria-hidden="true" d="M0,0h680v300h-680Z"/><g><g class="mark-line role-mark marks" clip-path="url(#clip5)" role="graphics-symbol" aria-roledescription="line mark container"><path d="M10,229.93098981040882L30,234.3058968058968L50,241.5900786180933L70,246.0911482769407L90,235.03452051461414L110,241.87421543835396L130,244.00746567124378L150,247.90153935521343L170,240.45928816979523L190,243.73301117487165L210,242.43747518856696L230,248.6323011645753L250,230.49708911777876L270,224.7728908745858L290,218.2906450519455L310,222.3445717505635L330,199.80982826208697L350,190.40095786000063L370,192.4138900934054L390,195.16532628810194L410,173.32669861303663L430,185.58530510585302L450,192.38310578732072L470,194.9792880592654L490,184.82537481584197L510,188.71653653095365L530,192.85776203327538L550,200.16310412910983L570,189.02821316614418L590,191.1571947275107L610,188.95690915892928L630,207.78237769179574L650,197.3883798345859L670,178.9524075714957" stroke="#4c78a8" stroke-width="2"/></g></g><path class="foreground" aria-hidden="true" d="" display="none"/></g><g transform="translate(0,0)"><path class="background" aria-hidden="true" d="M0,0h680v300h-680Z"/><g><g class="mark-line role-mark marks" clip-path="url(#clip6)" role="graphics-symbol" aria-roledescription="line mark container"><path d="M10,204.36117936117938L30,215.19357460902899L50,222.71996492253726L70,222.43004204726688L90,207.4406256726698L110,218.1568006099522L130,225.23188695437497L150,233.74902572096644L170,219.76525877032432L190,224.10609955597104L210,226.75764179417567L230,227.75321193551756L250,200.90805510478884L270,199.83909895414325L290,197.56316650160076L310,199.63911324969928L330,168.35972580626824L350,167.7645268834046L370,163.92337388994562L390,151.89776739758452L410,135.90476823834544L430,155.6207704605682L450,168.57105631738378L470,172.5833360594066L490,157.2389768522032L510,170.79294488460954L530,178.74862153510134L550,184.63015510656913L570,152.7551084962364L590,159.94748030511408L610,161.69386169386226L630,172.59547494273068L650,155.77683362676956L670,129.12457912457864" stroke="#ff9da6" stroke-width="2"/></g></g><path class="foreground" aria-hidden="true" d="" display="none"/></g><g transform="translate(0,0)"><path class="background" aria-hidden="true" d="M0,0h680v300h-680Z"/><g><g class="mark-line role-mark marks" clip-path="url(#clip7)" role="graphics-symbol" aria-roledescription="line mark container"><path d="M10,190.83750894774516L30,214.4453497846583L50,219.88854057819572L70,228.6765538322201L90,217.14614499424624L110,234.81989708404802L130,238.81118881118877L150,233.65149575136778L170,232.51038301799727L190,243.76757263355196L210,244.1990234829109L230,250.62989445011917L250,239.6621078037007L270,232.16604823747676L290,208.7529570800947L310,213.1016042780749L330,197.6853404897685L350,193.9756415832971L370,184.97443876416983L390,193.2092004381161L410,190.1655964852991L430,177.66420182688123L450,189.74164955139983L470,194.49003516998823L490,157.38703130007406L510,188.9493739793141L530,182.9360894326091L550,178.02335279399495L570,178.75288683602767L590,208.45959595959602L610,188.42975206611575L630,191.15787291385925L650,185.72016884587666L670,154.43390964863315" stroke="#eeca3b" stroke-width="2"/></g></g><path class="foreground" aria-hidden="true" d="" display="none"/></g><g transform="translate(0,0)"><path class="background" aria-hidden="true" d="M0,0h680v300h-680Z"/><g><g class="mark-line role-mark marks" clip-path="url(#clip8)" role="graphics-symbol" aria-roledescription="line mark container"><path d="M10,178.78787878787875L30,179.80105001381588L50,195.10489510489512L70,189.1018619934282L90,151.23966942148778L110,170.72560467055885L130,179.4345898004434L150,203.792526491913L170,192.56198347107437L190,168.95986895986897L210,206.65584415584408L230,214.51831750339213L250,182.1063662562221L270,179.67914438502666L290,181.07822410147995L310,197.23320158102769L330,180.73151338457467L350,151.68909640208724L370,135.85858585858637L390,139.32985443559502L410,84.26051560379867L430,95.0604308985818L450,117.40481740481728L470,134.8271446863L490,102.48164092175185L510,113.5198135198132L530,121.47379083312272L550,120.17982017982004L570,54.85188968335088L590,116.6539343009932L610,126.65639445300411L630,114.04958677686002L650,114.96379726468226L670,106.34749865519046" stroke="#4c78a8" stroke-width="2"/></g></g><path class="foreground" aria-hidden="true" d="" display="none"/></g><g transform="translate(0,0)"><path class="background" aria-hidden="true" d="M0,0h680v300h-680Z"/><g><g class="mark-line role-mark marks" clip-path="url(#clip9)" role="graphics-symbol" aria-roledescription="line mark container"><path d="M10,150.03487561032273L30,175.79450696833635L50,171.37145836954636L70,186.29292300729765L90,160.44165452303588L110,162.04782342121362L130,186.0802539106778L150,196.39037433155084L170,187.43770407286473L190,186.9914615770969L210,208.26446280991732L230,194.52536413862384L250,172.13331133476328L270,171.18477190679357L290,162.8294782140941L310,176.10764686576965L330,126.86503944512046L350,119.5638820638818L370,114.79551966657955L390,97.89241899968587L410,58.24729287333135L430,88.70050812496912L450,81.602099089365L470,115.59917355371864L490,110.28987706784046L510,106.07082630691367L530,120.83062621820184L550,103.39301612424546L570,83.32676000788771L590,110.76656394452998L610,119.23389603557997L630,123.6306280470314L650,102.54716532813819L670,75.428306837475" stroke="#72b7b2" stroke-width="2"/></g></g><path class="foreground" aria-hidden="true" d="" display="none"/></g><g transform="translate(0,0)"><path class="background" aria-hidden="true" d="M0,0h680v300h-680Z"/><g><g class="mark-line role-mark marks" clip-path="url(#clip10)" role="graphics-symbol" aria-roledescription="line mark container"><path d="M10,182.06388206388203L30,219.78609625668452L50,200.56818181818178L70,188.11188811188805L90,179.2613636363636L110,183.50845134764728L130,194.59815546772063L150,212.24122412241218L170,196.59629470056012L190,229.90654205607476L210,216.77336747759279L230,214.77272727272725L250,181.6936488169365L270,194.1469489414695L290,175.46699875467L310,188.9345948169477L330,189.4348894348894L350,189.93069710558493L370,167.42424242424246L390,177.20809995691513L410,160.46511627906952L430,153.8961038961041L450,179.85582699239083L470,172.34042553191497L490,157.36021300874867L510,146.5909090909091L530,116.32653061224542L550,110.60606060606045L570,93.06685532366454L590,97.37130339539998L610,97.37130339539998L630,96.79144385026771L650,75.40106951871681L670,74.7035573122527" stroke="#b279a2" stroke-width="2"/></g></g><path class="foreground" aria-hidden="true" d="" display="none"/></g><g transform="translate(0,0)"><path class="background" aria-hidden="true" d="M0,0h680v300h-680Z"/><g><g class="mark-line role-mark marks" clip-path="url(#clip11)" role="graphics-symbol" aria-roledescription="line mark container"><path d="M10,192.1962992759453L30,194.57601222307105L50,203.48692403486916L70,207.563025210084L90,193.91849529780558L110,196.64832668719404L130,195.66347329800243L150,218.2654535316927L170,196.05404192736248L190,204.0376381559295L210,201.8271066266703L230,204.48949135679644L250,174.742080349557L270,178.0191770845976L290,185.1674641148325L310,182.4328187535735L330,162.9941487084341L350,151.70002411381776L370,150.18590070715229L390,127.30616729565817L410,111.50914448530362L430,144.68095329617591L450,148.2115668407864L470,154.8060590548432L490,133.9576429909241L510,147.53935611969953L530,151.123661885295L550,161.0980539625841L570,143.43565832761365L590,147.65625L610,147.43750872783139L630,174.75372924289337L650,154.88744700288137L670,176.27606221837527" stroke="#bab0ac" stroke-width="2"/></g></g><path class="foreground" aria-hidden="true" d="" display="none"/></g><g transform="translate(0,0)"><path class="background" aria-hidden="true" d="M0,0h680v300h-680Z"/><g><g class="mark-line role-mark marks" clip-path="url(#clip12)" role="graphics-symbol" aria-roledescription="line mark container"><path d="M10,129.01111427757135L30,101.49597238204773L50,109.33959657363957L70,137.86031042128636L90,145.62607204116685L110,106.3973063973068L130,150.78751036197818L150,173.81275440976938L170,146.69176976869227L190,164.8290485025179L210,155.8441558441555L230,169.94219653179192L250,167.25663716814165L270,164.0362569981338L290,138.87870055017L310,126.65639445300411L330,105.76109936575091L350,83.67241823332503L370,99.12438835951635L390,70.21597187343002L410,48.30954169797131L430,67.09241172051134L450,75.18427518427501L470,46.385689781916774L490,7.531074823299566L510,9.629992648859941L530,51.420454545454106L550,33.04473304473273L570,26.562500000000455L590,70.47704770477091L610,70.40816326530546L630,88.87863405629865L650,65.13204019630776L670,142.35417761429318" stroke="#e45756" stroke-width="2"/></g></g><path class="foreground" aria-hidden="true" d="" display="none"/></g><g transform="translate(0,0)"><path class="background" aria-hidden="true" d="M0,0h680v300h-680Z"/><g><g class="mark-line role-mark marks" clip-path="url(#clip13)" role="graphics-symbol" aria-roledescription="line mark container"><path d="M10,184.96932515337423L30,195.42665923034022L50,201.24667320352992L70,196.35550738382332L90,172.81067556296918L110,187.74944567627495L130,215.6948152311367L150,212.42702251876568L170,184.67763690315613L190,195.41432019308127L210,197.23320158102769L230,213.13131313131314L250,180.45387005268137L270,196.9696969696969L290,174.93275954814425L310,176.9499731038193L330,154.67816854678227L350,147.17868338558046L370,153.60962566844864L390,121.70846394984275L410,127.5634249471459L430,139.57219251336952L450,138.97268650631867L470,157.3847356082318L490,150.21398002853047L510,146.1341197589441L530,167.10323574730347L550,158.9341692789968L570,132.40223463687136L590,143.45529988683546L610,156.26024460975955L630,176.2061960385983L650,146.80368175513772L670,129.29734021437136" stroke="#e45756" stroke-width="2"/></g></g><path class="foreground" aria-hidden="true" d="" display="none"/></g><g transform="translate(0,0)"><path class="background" aria-hidden="true" d="M0,0h680v300h-680Z"/><g><g class="mark-line role-mark marks" clip-path="url(#clip14)" role="graphics-symbol" aria-roledescription="line mark container"><path d="M10,192.21256684491982L30,176.21383355980515L50,195.75404573584402L70,197.85306943978526L90,172.75399104936204L110,174.14148932570956L130,199.4459265339626L150,224.96498365904085L170,213.42767705751928L190,202.45875121319958L210,209.02638879927738L230,204.28090428090425L250,178.45953417431917L270,180.5504236478307L290,184.90927958240303L310,187.86822933164402L330,152.63091601851548L350,138.8206388206391L370,138.16964285714317L390,123.26951399116363L410,95.92510649539363L430,100.85132259045274L450,104.14028411141315L470,118.8881041267282L490,87.42565845369543L510,104.89429583143365L530,112.63011797362911L550,108.29515312273908L570,77.84046829818682L590,101.53894363009636L610,107.26170381342823L630,134.44505570072863L650,80.65940129672998L670,81.51999388332408" stroke="#f58518" stroke-width="2"/></g></g><path class="foreground" aria-hidden="true" d="" display="none"/></g><g transform="translate(0,0)"><path class="background" aria-hidden="true" d="M0,0h680v300h-680Z"/><g><g class="mark-line role-mark marks" clip-path="url(#clip15)" role="graphics-symbol" aria-roledescription="line mark container"><path d="M10,195.54717945441763L30,205.13000702740692L50,216.66666666666669L70,205.761135892442L90,186.3636363636364L110,197.75051124744382L130,198.36250705815928L150,204.96986099151192L170,203.94398228499614L190,204.4011544011544L210,216.80733060043406L230,219.4630872483221L250,195.10489510489512L270,195.7272128003835L290,196.3528210058283L310,202.20570314404094L330,169.46861692279217L350,165.33149171270713L370,171.7136522014571L390,179.73619552566916L410,128.33311780680137L430,115.21258449681L450,135.91097698981497L470,118.6907564094409L490,120.00782574670636L510,118.43664394470271L530,132.00900957267137L550,133.29170829170866L570,126.83982683982681L590,126.27646326276407L610,126.31672703521228L630,122.01533406352635L650,113.65866089061547L670,127.14468629961544" stroke="#f58518" stroke-width="2"/></g></g><path class="foreground" aria-hidden="true" d="" display="none"/></g><g transform="translate(0,0)"><path class="background" aria-hidden="true" d="M0,0h680v300h-680Z"/><g><g class="mark-line role-mark marks" clip-path="url(#clip16)" role="graphics-symbol" aria-roledescription="line mark container"><path d="M10,201.3493180604767L30,189.01911947842652L50,190.6114349497706L70,198.03882077490493L90,179.85582699239083L110,185.71849885718495L130,202.35964198535405L150,206.69474295672381L170,192.8004235044997L190,197.89625975381261L210,198.89727772882077L230,210.16214636996645L250,191.09975799946227L270,179.75371242303518L290,170.07874015748035L310,177.21494607087834L330,153.1019902311L350,143.87705317937866L370,121.81538676542456L390,130.72582713516275L410,105.83870744053777L430,119.54939502109359L450,139.71412813677682L470,149.3016417544718L490,124.80477927192139L510,140.13006367700865L530,155.05961615176636L550,162.53531151989728L570,144.18444291211634L590,151.67811839323502L610,146.25345682805866L630,162.17008797653997L650,135.27432139219775L670,135.32438421763226" stroke="#b279a2" stroke-width="2"/></g></g><path class="foreground" aria-hidden="true" d="" display="none"/></g><g transform="translate(0,0)"><path class="background" aria-hidden="true" d="M0,0h680v300h-680Z"/><g><g class="mark-line role-mark marks" clip-path="url(#clip17)" role="graphics-symbol" aria-roledescription="line mark container"><path d="M10,143.69781577716952L30,146.6973692511518L50,146.07151850919135L70,143.09623430962364L90,135.43978956822957L110,153.82741377099683L130,162.3161071293845L150,167.14232992988073L170,140.59027145199545L190,142.9032454484564L210,156.50805406406184L230,158.74315258201497L250,143.6363636363632L270,142.06726430419363L290,127.77908619877499L310,134.1402187556032L330,104.2802268154377L350,116.4335664335659L370,107.77329883881814L390,100.15673981191226L410,77.25461789206776L430,86.93181818181819L450,113.22533849129591L470,132.6321565758191L490,96.22778822245088L510,120.59800664451816L530,125.601776115915L550,117.52907666745816L570,111.13320079522909L590,128.87349181698679L610,117.5856929955286L630,127.85555488794137L650,90.14167650531274L670,95.04870129870136" stroke="#e45756" stroke-width="2"/></g></g><path class="foreground" aria-hidden="true" d="" display="none"/></g><g transform="translate(0,0)"><path class="background" aria-hidden="true" d="M0,0h680v300h-680Z"/><g><g class="mark-line role-mark marks" clip-path="url(#clip18)" role="graphics-symbol" aria-roledescription="line mark container"><path d="M10,165.52233094626357L30,173.1501057082452L50,184.71673254281947L70,177.01512381585502L90,171.71655467318263L110,178.7697982208722L130,184.6470749794013L150,185.62003136661082L170,173.39390355357233L190,180.69182725671277L210,174.4334844041588L230,189.62943215142627L250,175.60632138945394L270,176.39093008608012L290,159.8789270431064L310,170.62122975976294L330,163.47574686797316L350,153.9252488983186L370,125.83094871230455L390,137.38718908210498L410,120.33449246564047L430,143.9700942680686L450,153.38104903322318L470,163.07585544226774L490,139.8089513791991L510,150.37204788094502L530,153.78258105530867L550,150.16736623983817L570,148.48484848484864L590,137.14146815751138L610,146.49953976934364L630,135.6476459101759L650,112.25296442687723L670,125.506247307195" stroke="#9d755d" stroke-width="2"/></g></g><path class="foreground" aria-hidden="true" d="" display="none"/></g><g transform="translate(0,0)"><path class="background" aria-hidden="true" d="M0,0h680v300h-680Z"/><g><g class="mark-line role-mark marks" clip-path="url(#clip19)" role="graphics-symbol" aria-roledescription="line mark container"><path d="M10,169.59856814114033L30,188.4135472370767L50,173.6732810336872L70,174.97652141247178L90,155.57721567135818L110,169.21097770154375L130,185.57143863108234L150,200.21324926985304L170,180.35190615835774L190,191.92382541006396L210,186.56476267095738L230,196.42399853667465L250,188.75958378970432L270,176.18516452872285L290,147.24917682461455L310,149.7203315587309L330,118.94181549947459L350,109.79537068098001L370,90.78830420018728L390,87.04764471999411L410,67.01860685944226L430,43.07813025445636L450,56.040582031771336L470,70.30713719968361L490,58.07501953633778L510,69.74184163102225L530,71.85940551095729L550,89.40982754138183L570,80.60145834232229L590,81.3097514340341L610,83.89385181292637L630,109.19510289137732L650,101.8048128342246L670,95.08932003998316" stroke="#4c78a8" stroke-width="2"/></g></g><path class="foreground" aria-hidden="true" d="" display="none"/></g><g transform="translate(0,0)"><path class="background" aria-hidden="true" d="M0,0h680v300h-680Z"/><g><g class="mark-line role-mark marks" clip-path="url(#clip20)" role="graphics-symbol" aria-roledescription="line mark container"><path d="M10,146.53233364573637L30,139.92094861660095L50,144.18833876715408L70,150.69674850696683L90,134.37615016562316L110,155.58903505548682L130,157.8406357075159L150,172.71251475796936L170,167.74838853078464L190,167.85608528279536L210,167.8604953426241L230,172.45801743073758L250,149.57488554610907L270,140.9273751188468L290,154.09200614349407L310,145.58503697259684L330,125.06338283230775L350,110.07255655142998L370,98.57819905213226L390,98.75366568915001L410,61.727198150495454L430,57.32838589981504L450,83.74542466572L470,88.84869455803775L490,58.434656574604105L510,64.47379016023773L530,67.66811955168134L550,83.58672044678862L570,81.9566220581455L590,101.06690375639046L610,91.07383555488956L630,115.00155134967407L650,74.42756744502404L670,56.00693584344817" stroke="#f58518" stroke-width="2"/></g></g><path class="foreground" aria-hidden="true" d="" display="none"/></g><g transform="translate(0,0)"><path class="background" aria-hidden="true" d="M0,0h680v300h-680Z"/><g><g class="mark-line role-mark marks" clip-path="url(#clip21)" role="graphics-symbol" aria-roledescription="line mark container"><path d="M10,160.02886002885955L30,152.5798525798527L50,158.21517931609637L70,169.81030780243375L90,143.3384797021159L110,148.7875760603032L130,163.36580086580042L150,182.01938906164256L170,171.8181818181818L190,169.93428258488495L210,177.13771377137712L230,178.31760867648353L250,182.85363285363286L270,176.8755516328332L290,183.2319255547602L310,165L330,146.69176976869227L350,128.04585443881635L370,105.76888730130413L390,95.45454545454547L410,80.32605692180182L430,108.65971972691322L450,114.29604193023683L470,116.86429512516409L490,67.18403547671862L510,70.26421854008042L530,61.23098691192137L550,95.38979538979501L570,88.91478891478906L590,91.07589658048366L610,99.9832271049982L630,97.66187050359682L650,88.83989145183142L670,30.571847507331817" stroke="#9d755d" stroke-width="2"/></g></g><path class="foreground" aria-hidden="true" d="" display="none"/></g><g transform="translate(0,0)"><path class="background" aria-hidden="true" d="M0,0h680v300h-680Z"/><g><g class="mark-line role-mark marks" clip-path="url(#clip22)" role="graphics-symbol" aria-roledescription="line mark container"><path d="M10,143.05467260012725L30,147.1410822384941L50,154.07217511338956L70,152.94705294705273L90,119.74110467382681L110,139.7504984641909L130,155.5273854078641L150,177.80682967848736L170,143.5587614905868L190,162.34770384254864L210,167.09083102384952L230,167.195672696655L250,145.6907719271509L270,126.44628099173595L290,124.893903713685L310,133.8474481211441L330,88.23846776369048L350,90.32860103226815L370,83.08011861683316L390,73.08344882073274L410,46.89564412941274L430,61.6756812981068L450,72.23298667404818L470,95.46436002460227L490,55.391794979961794L510,74.79763844735868L530,79.55520873975821L550,62.87139052790999L570,50.47362001401405L590,63.986013986014065L610,71.12974530848598L630,76.12818835840363L650,45.01108647450144L670,29.289609322476807" stroke="#54a24b" stroke-width="2"/></g></g><path class="foreground" aria-hidden="true" d="" display="none"/></g><g transform="translate(0,0)"><path class="background" aria-hidden="true" d="M0,0h680v300h-680Z"/><g><g class="mark-line role-mark marks" clip-path="url(#clip23)" role="graphics-symbol" aria-roledescription="line mark container"><path d="M10,193.40665294181386L30,202.700712651537L50,212.65856236786476L70,215.20535302261186L90,198.60792385102377L110,205.14515665421104L130,214.5022685747756L150,222.09301301971007L170,203.69986016692025L190,206.9561946089711L210,206.64173601601183L230,214.87912836227443L250,187.67904820712633L270,193.0026298148816L290,182.18466200032157L310,173.24194863432533L330,147.94670699895545L350,150.8836524300436L370,147.1473354231968L390,148.54061922249954L410,113.58927127699504L430,133.95977035231908L450,132.36504975635455L470,154.7831789490941L490,127.84167655847047L510,152.79410688586907L530,167.23290120697362L550,168.33601924036554L570,147.8826746372591L590,169.67465048927468L610,164.9829274939485L630,170.9161617947193L650,143.01969900893184L670,123.57905100121363" stroke="#54a24b" stroke-width="2"/></g></g><path class="foreground" aria-hidden="true" d="" display="none"/></g><g transform="translate(0,0)"><path class="background" aria-hidden="true" d="M0,0h680v300h-680Z"/><g><g class="mark-line role-mark marks" clip-path="url(#clip24)" role="graphics-symbol" aria-roledescription="line mark container"><path d="M10,195.67006269592474L30,201.32049387424325L50,205.4905490549055L70,209.0439033562095L90,194.01789919924636L110,196.01749325393126L130,202.20385674931134L150,219.6187224356239L170,214.06250000000003L190,211.3882507384313L210,220.86669806877055L230,217.6375095492743L250,205.63806640809761L270,209.8364475094357L290,188.65398167723754L310,176.03305785123968L330,149.26384669315226L350,143.2127630312195L370,126.4844442371373L390,114.4526808858968L410,103.03792835247275L430,117.82979846871409L450,122.78590974243139L470,141.79170344218903L490,129.3801252094173L510,135.73787589084L530,147.0507249494468L550,160.72122651695042L570,134.09197260390545L590,150.97892505299865L610,155.8604121886459L630,159.45809065586184L650,148.05924412665954L670,132.09462521526274" stroke="#bab0ac" stroke-width="2"/></g></g><path class="foreground" aria-hidden="true" d="" display="none"/></g><g transform="translate(0,0)"><path class="background" aria-hidden="true" d="M0,0h680v300h-680Z"/><g><g class="mark-line role-mark marks" clip-path="url(#clip25)" role="graphics-symbol" aria-roledescription="line mark container"><path d="M10,184.0798447589111L30,198.75240463038998L50,199.06542056074773L70,207.92656733964873L90,201.48505913153386L110,205.8449636951752L130,207.10923953430762L150,216.10239282609695L170,209.0231423440518L190,212.23196162699713L210,216.50166883520959L230,221.23030757689418L250,210.72034761355144L270,201.9651505873184L290,187.73374962633272L310,183.6425516867963L330,163.50432428863775L350,144.7920191226709L370,134.95833106378367L390,116.82737269824956L410,102.17917417401408L430,86.67086812667456L450,102.58640421149047L470,94.48440006208907L490,95.00176946936729L510,90.46107896210593L530,101.15578201702635L550,97.96259598711954L570,91.4853978360341L590,93.65014085665501L610,101.98578359472003L630,113.01513101242502L650,102.1852054568168L670,76.03693001945457" stroke="#54a24b" stroke-width="2"/></g></g><path class="foreground" aria-hidden="true" d="" display="none"/></g><g transform="translate(0,0)"><path class="background" aria-hidden="true" d="M0,0h680v300h-680Z"/><g><g class="mark-line role-mark marks" clip-path="url(#clip26)" role="graphics-symbol" aria-roledescription="line mark container"><path d="M10,193.7346713079532L30,197.36982406255555L50,206.04345239052478L70,207.8884929986407L90,194.74104380800324L110,199.05140746774435L130,200.6249703711897L150,211.3038277511962L170,201.26031154933392L190,204.0276779437436L210,201.58102766798416L230,203.38145346539304L250,184.74588128301096L270,177.39068789053871L290,169.56521739130432L310,161.96529674790546L330,136.82983682983638L350,133.92867161639046L370,125.72083952867999L390,130.79695634761777L410,106.01746226746226L430,115.87109518793727L450,119.47477644860184L470,126.6185535572959L490,109.77418680582137L510,114.05204166501682L530,121.44452504922684L550,130.6011712852214L570,116.14131381464185L590,124.97823243877774L610,136.52219873150045L630,143.50931984228995L650,133.5245196443932L670,114.65998319930866" stroke="#f58518" stroke-width="2"/></g></g><path class="foreground" aria-hidden="true" d="" display="none"/></g><g transform="translate(0,0)"><path class="background" aria-hidden="true" d="M0,0h680v300h-680Z"/><g><g class="mark-line role-mark marks" clip-path="url(#clip27)" role="graphics-symbol" aria-roledescription="line mark container"><path d="M10,224.15980965599294L30,227.46097173087531L50,236.9809003651876L70,240.60606060606057L90,233.6752741422003L110,238.5598622975902L130,243.4007323674574L150,248.8397296952697L170,243.8586991144804L190,243.47867388619747L210,244.60227272727272L230,249.56610842486157L250,227.62422112158492L270,216.00360662480034L290,216.50721864672124L310,221.0402999062793L330,189.97328474141793L350,188.46551378368787L370,184.16447399149925L390,190.21571648690295L410,159.06872121314183L430,178.39016107567346L450,184.61715619290356L470,187.16469834294614L490,168.92959166526643L510,176.2209498147525L530,182.3860781656796L550,193.39132279622356L570,178.90836797397435L590,177.64540365791603L610,178.15075857125797L630,200.53529004901813L650,191.5909090909091L670,169.5571728136178" stroke="#ff9da6" stroke-width="2"/></g></g><path class="foreground" aria-hidden="true" d="" display="none"/></g><g transform="translate(0,0)"><path class="background" aria-hidden="true" d="M0,0h680v300h-680Z"/><g><g class="mark-line role-mark marks" clip-path="url(#clip28)" role="graphics-symbol" aria-roledescription="line mark container"><path d="M10,243.75100444634916L30,249.4657051113334L50,256.58465991316933L70,263.5624323396615L90,250.6358107574441L110,253.3731988093043L130,261.85351750722776L150,265.60917088776324L170,258.12704097756244L190,262.0992788335001L210,260.3503679900487L230,263.7127578304049L250,247.02474719243867L270,246.82723250201127L290,240.79344328238128L310,243.056943056943L330,218.55541718555412L350,209.11594602038005L370,213.20613542835764L390,215.9351287010861L410,192.60143198090688L430,197.58251302837294L450,208.18229639902447L470,213.3973782594293L490,210.88045812455266L510,211.8260994745556L530,215.64398903848442L550,213.16216788647537L570,201.7869805701319L590,217.96875L610,221.1852973894109L630,226.9979508196721L650,223.069583263758L670,205.69038066347008" stroke="#ff9da6" stroke-width="2"/></g></g><path class="foreground" aria-hidden="true" d="" display="none"/></g><g transform="translate(0,0)"><path class="background" aria-hidden="true" d="M0,0h680v300h-680Z"/><g><g class="mark-line role-mark marks" clip-path="url(#clip29)" role="graphics-symbol" aria-roledescription="line mark container"><path d="M10,227.4992422913111L30,231.8656621929603L50,237.05925524107337L70,240.9999210172972L90,227.1232364757544L110,238.31391363947907L130,234.54730479832241L150,236.7789570835256L170,227.03491514430874L190,233.13452308839285L210,229.5555624669548L230,238.7783605946802L250,223.09804998626757L270,219.81320470674981L290,206.51192778852356L310,211.32291729504738L330,198.05431088924303L350,181.04016493356L370,187.62605327022504L390,187.39584115306664L410,175.30036865121423L430,185.18168310144534L450,190.06551198061567L470,190.99000554415093L490,183.83415747432477L510,186.45959681257773L530,188.50483298666342L550,198.57063076388997L570,191.007970276263L590,187.77112717790686L610,179.46249200136901L630,202.5184573895872L650,187.0174704466995L670,171.44573488185816" stroke="#72b7b2" stroke-width="2"/></g></g><path class="foreground" aria-hidden="true" d="" display="none"/></g><g transform="translate(0,0)"><path class="background" aria-hidden="true" d="M0,0h680v300h-680Z"/><g><g class="mark-line role-mark marks" clip-path="url(#clip30)" role="graphics-symbol" aria-roledescription="line mark container"><path d="M10,197.8675645342312L30,204.30622009569382L50,232.80951681597887L70,232.633103947845L90,235.11730205278596L110,232.30174081237908L130,240.3409090909091L150,238.8455761390459L170,236.09646905913792L190,246.8575072628074L210,245.031712473573L230,248.52220198907415L250,216.4054336468129L270,215.36050156739807L290,214.51524306509197L310,218.8800657174151L330,193.68951887692515L350,204.81597755660945L370,195.56834917659654L390,189.0063424947146L410,166.71971354684703L430,178.80977404098792L450,192.34449760765554L470,200.8442960926762L490,184.3387546167304L510,196.97401671742375L530,201.91721686135094L550,204.973075704783L570,170.99445753965728L590,187.53514526710404L610,197.08404802744434L630,210.8170310701957L650,195.70472415361624L670,144.45212582094683" stroke="#72b7b2" stroke-width="2"/></g></g><path class="foreground" aria-hidden="true" d="" display="none"/></g><g transform="translate(0,0)"><path class="background" aria-hidden="true" d="M0,0h680v300h-680Z"/><g><g class="mark-line role-mark marks" clip-path="url(#clip31)" role="graphics-symbol" aria-roledescription="line mark container"><path d="M10,210.13784679811553L30,221.9788475986823L50,230.69192560933348L70,237.11594785505088L90,222.02949319170574L110,238.5142343758774L130,247.5524475524475L150,249.55722452639836L170,240.2423504675483L190,246.28099173553719L210,248.94598155467727L230,246.18314290445443L250,222.5206611570248L270,215.60017652250667L290,209.482036095435L310,222.85998672859992L330,176.1831388950033L350,166.04278074866303L370,177.66420182688123L390,170.39819684447778L410,156.93263570961406L430,182.83792579735294L450,172.30688386757757L470,199.81447124304273L490,173.44442100822613L510,184.09479852720014L530,208.21678321678323L550,206.03514132925895L570,175.89630446773307L590,187.04040950927794L610,190.61345158906133L630,212.51005631536609L650,184.072330938816L670,160.7906475926782" stroke="#e45756" stroke-width="2"/></g></g><path class="foreground" aria-hidden="true" d="" display="none"/></g><g transform="translate(0,0)"><path class="background" aria-hidden="true" d="M0,0h680v300h-680Z"/><g><g class="mark-line role-mark marks" clip-path="url(#clip32)" role="graphics-symbol" aria-roledescription="line mark container"><path d="M10,214.0815516361368L30,228.89012827663132L50,232.76955602537004L70,230.57698241283558L90,207.767391843825L110,221.94674012855836L130,229.5813542472109L150,245.94966304497314L170,222.52534410285995L190,226.30093107847665L210,229.80985096426926L230,231.33915265062802L250,205.04814085855637L270,199.77904040404036L290,201.7484549152184L310,195.01381397184585L330,164.22329463936356L350,161.55976003691725L370,157.28475090177272L390,147.2051597051591L410,126.86414708886683L430,149.4808396205277L450,173.9898307582717L470,171.96077943408898L490,159.9003735990041L510,170.73474470734746L530,178.20672478206723L550,188.1959800243485L570,154.62845425251408L590,156.747102136035L610,152.2519093050368L630,157.96948974224048L650,145.56407447973683L670,125.23510971786816" stroke="#4c78a8" stroke-width="2"/></g></g><path class="foreground" aria-hidden="true" d="" display="none"/></g><g transform="translate(0,0)"><path class="background" aria-hidden="true" d="M0,0h680v300h-680Z"/><g><g class="mark-line role-mark marks" clip-path="url(#clip33)" role="graphics-symbol" aria-roledescription="line mark container"><path d="M10,180.58551617873647L30,184.66757123473542L50,182.3791916358536L70,180.2338740098077L90,167.9445554445555L110,175.19260400616326L130,179.2054402290623L150,184.5454545454545L170,177.11683071467877L190,174.3779584901081L210,179.59866220735788L230,181.42292490118578L250,153.11895551257228L270,169.0909090909091L290,159.99999999999957L310,168.064341225375L330,147.19409031335593L350,151.07655502392407L370,136.60698765861272L390,110.58225244271725L410,107.74683831452452L430,120.97989949748728L450,131.92791960263318L470,119.62025316455727L490,109.09090909090907L510,133.86743127002865L530,127.98736912082451L550,135.56638246041408L570,108.36714552034228L590,113.42274620085412L610,120.2959830866809L630,128.92861059326725L650,113.674837858635L670,88.29389788293955" stroke="#9d755d" stroke-width="2"/></g></g><path class="foreground" aria-hidden="true" d="" display="none"/></g></g><g class="mark-group role-legend" role="graphics-symbol" aria-roledescription="legend" aria-label="Symbol legend titled 'Brasil, Grande Região e Unidade da Federação' for stroke color with 33 values: Acre, Alagoas, Amapá, Amazonas, Bahia, ending with Tocantins"><g transform="translate(698,0)"><path class="background" aria-hidden="true" d="M0,0h176v404h-176Z" pointer-events="none"/><g><g class="mark-group role-legend-entry"><g transform="translate(0,16)"><path class="background" aria-hidden="true" d="M0,0h0v0h0Z" pointer-events="none"/><g><g class="mark-group role-scope" role="graphics-object" aria-roledescription="group mark container"><g transform="translate(0,0)"><path class="background" aria-hidden="true" d="M0,0h108.2705078125v11h-108.2705078125Z" pointer-events="none" opacity="1"/><g><g class="mark-symbol role-legend-symbol" pointer-events="none"><path transform="translate(6,6)" d="M-5,0L5,0" stroke="#4c78a8" stroke-width="1.5" opacity="1"/></g><g class="mark-text role-legend-label" pointer-events="none"><text text-anchor="start" transform="translate(16,9)" font-family="sans-serif" font-size="10px" fill="#000" opacity="1">Acre</text></g></g><path class="foreground" aria-hidden="true" d="" pointer-events="none" display="none"/></g><g transform="translate(0,13)"><path class="background" aria-hidden="true" d="M0,0h108.2705078125v11h-108.2705078125Z" pointer-events="none" opacity="1"/><g><g class="mark-symbol role-legend-symbol" pointer-events="none"><path transform="translate(6,6)" d="M-5,0L5,0" stroke="#f58518" stroke-width="1.5" opacity="1"/></g><g class="mark-text role-legend-label" pointer-events="none"><text text-anchor="start" transform="translate(16,9)" font-family="sans-serif" font-size="10px" fill="#000" opacity="1">Alagoas</text></g></g><path class="foreground" aria-hidden="true" d="" pointer-events="none" display="none"/></g><g transform="translate(0,26)"><path class="background" aria-hidden="true" d="M0,0h108.2705078125v11h-108.2705078125Z" pointer-events="none" opacity="1"/><g><g class="mark-symbol role-legend-symbol" pointer-events="none"><path transform="translate(6,6)" d="M-5,0L5,0" stroke="#e45756" stroke-width="1.5" opacity="1"/></g><g class="mark-text role-legend-label" pointer-events="none"><text text-anchor="start" transform="translate(16,9)" font-family="sans-serif" font-size="10px" fill="#000" opacity="1">Amapá</text></g></g><path class="foreground" aria-hidden="true" d="" pointer-events="none" display="none"/></g><g transform="translate(0,39)"><path class="background" aria-hidden="true" d="M0,0h108.2705078125v11h-108.2705078125Z" pointer-events="none" opacity="1"/><g><g class="mark-symbol role-legend-symbol" pointer-events="none"><path transform="translate(6,6)" d="M-5,0L5,0" stroke="#72b7b2" stroke-width="1.5" opacity="1"/></g><g class="mark-text role-legend-label" pointer-events="none"><text text-anchor="start" transform="translate(16,9)" font-family="sans-serif" font-size="10px" fill="#000" opacity="1">Amazonas</text></g></g><path class="foreground" aria-hidden="true" d="" pointer-events="none" display="none"/></g><g transform="translate(0,52)"><path class="background" aria-hidden="true" d="M0,0h108.2705078125v11h-108.2705078125Z" pointer-events="none" opacity="1"/><g><g class="mark-symbol role-legend-symbol" pointer-events="none"><path transform="translate(6,6)" d="M-5,0L5,0" stroke="#54a24b" stroke-width="1.5" opacity="1"/></g><g class="mark-text role-legend-label" pointer-events="none"><text text-anchor="start" transform="translate(16,9)" font-family="sans-serif" font-size="10px" fill="#000" opacity="1">Bahia</text></g></g><path class="foreground" aria-hidden="true" d="" pointer-events="none" display="none"/></g><g transform="translate(0,65)"><path class="background" aria-hidden="true" d="M0,0h108.2705078125v11h-108.2705078125Z" pointer-events="none" opacity="1"/><g><g class="mark-symbol role-legend-symbol" pointer-events="none"><path transform="translate(6,6)" d="M-5,0L5,0" stroke="#eeca3b" stroke-width="1.5" opacity="1"/></g><g class="mark-text role-legend-label" pointer-events="none"><text text-anchor="start" transform="translate(16,9)" font-family="sans-serif" font-size="10px" fill="#000" opacity="1">Brasil</text></g></g><path class="foreground" aria-hidden="true" d="" pointer-events="none" display="none"/></g><g transform="translate(0,78)"><path class="background" aria-hidden="true" d="M0,0h108.2705078125v11h-108.2705078125Z" pointer-events="none" opacity="1"/><g><g class="mark-symbol role-legend-symbol" pointer-events="none"><path transform="translate(6,6)" d="M-5,0L5,0" stroke="#b279a2" stroke-width="1.5" opacity="1"/></g><g class="mark-text role-legend-label" pointer-events="none"><text text-anchor="start" transform="translate(16,9)" font-family="sans-serif" font-size="10px" fill="#000" opacity="1">Ceará</text></g></g><path class="foreground" aria-hidden="true" d="" pointer-events="none" display="none"/></g><g transform="translate(0,91)"><path class="background" aria-hidden="true" d="M0,0h108.2705078125v11h-108.2705078125Z" pointer-events="none" opacity="1"/><g><g class="mark-symbol role-legend-symbol" pointer-events="none"><path transform="translate(6,6)" d="M-5,0L5,0" stroke="#ff9da6" stroke-width="1.5" opacity="1"/></g><g class="mark-text role-legend-label" pointer-events="none"><text text-anchor="start" transform="translate(16,9)" font-family="sans-serif" font-size="10px" fill="#000" opacity="1">Centro-Oeste</text></g></g><path class="foreground" aria-hidden="true" d="" pointer-events="none" display="none"/></g><g transform="translate(0,104)"><path class="background" aria-hidden="true" d="M0,0h108.2705078125v11h-108.2705078125Z" pointer-events="none" opacity="1"/><g><g class="mark-symbol role-legend-symbol" pointer-events="none"><path transform="translate(6,6)" d="M-5,0L5,0" stroke="#9d755d" stroke-width="1.5" opacity="1"/></g><g class="mark-text role-legend-label" pointer-events="none"><text text-anchor="start" transform="translate(16,9)" font-family="sans-serif" font-size="10px" fill="#000" opacity="1">Distrito Federal</text></g></g><path class="foreground" aria-hidden="true" d="" pointer-events="none" display="none"/></g><g transform="translate(0,117)"><path class="background" aria-hidden="true" d="M0,0h108.2705078125v11h-108.2705078125Z" pointer-events="none" opacity="1"/><g><g class="mark-symbol role-legend-symbol" pointer-events="none"><path transform="translate(6,6)" d="M-5,0L5,0" stroke="#bab0ac" stroke-width="1.5" opacity="1"/></g><g class="mark-text role-legend-label" pointer-events="none"><text text-anchor="start" transform="translate(16,9)" font-family="sans-serif" font-size="10px" fill="#000" opacity="1">Espírito Santo</text></g></g><path class="foreground" aria-hidden="true" d="" pointer-events="none" display="none"/></g><g transform="translate(0,130)"><path class="background" aria-hidden="true" d="M0,0h108.2705078125v11h-108.2705078125Z" pointer-events="none" opacity="1"/><g><g class="mark-symbol role-legend-symbol" pointer-events="none"><path transform="translate(6,6)" d="M-5,0L5,0" stroke="#4c78a8" stroke-width="1.5" opacity="1"/></g><g class="mark-text role-legend-label" pointer-events="none"><text text-anchor="start" transform="translate(16,9)" font-family="sans-serif" font-size="10px" fill="#000" opacity="1">Goiás</text></g></g><path class="foreground" aria-hidden="true" d="" pointer-events="none" display="none"/></g><g transform="translate(0,143)"><path class="background" aria-hidden="true" d="M0,0h108.2705078125v11h-108.2705078125Z" pointer-events="none" opacity="1"/><g><g class="mark-symbol role-legend-symbol" pointer-events="none"><path transform="translate(6,6)" d="M-5,0L5,0" stroke="#f58518" stroke-width="1.5" opacity="1"/></g><g class="mark-text role-legend-label" pointer-events="none"><text text-anchor="start" transform="translate(16,9)" font-family="sans-serif" font-size="10px" fill="#000" opacity="1">Maranhão</text></g></g><path class="foreground" aria-hidden="true" d="" pointer-events="none" display="none"/></g><g transform="translate(0,156)"><path class="background" aria-hidden="true" d="M0,0h108.2705078125v11h-108.2705078125Z" pointer-events="none" opacity="1"/><g><g class="mark-symbol role-legend-symbol" pointer-events="none"><path transform="translate(6,6)" d="M-5,0L5,0" stroke="#e45756" stroke-width="1.5" opacity="1"/></g><g class="mark-text role-legend-label" pointer-events="none"><text text-anchor="start" transform="translate(16,9)" font-family="sans-serif" font-size="10px" fill="#000" opacity="1">Mato Grosso</text></g></g><path class="foreground" aria-hidden="true" d="" pointer-events="none" display="none"/></g><g transform="translate(0,169)"><path class="background" aria-hidden="true" d="M0,0h108.2705078125v11h-108.2705078125Z" pointer-events="none" opacity="1"/><g><g class="mark-symbol role-legend-symbol" pointer-events="none"><path transform="translate(6,6)" d="M-5,0L5,0" stroke="#72b7b2" stroke-width="1.5" opacity="1"/></g><g class="mark-text role-legend-label" pointer-events="none"><text text-anchor="start" transform="translate(16,9)" font-family="sans-serif" font-size="10px" fill="#000" opacity="1">Mato Grosso do Sul</text></g></g><path class="foreground" aria-hidden="true" d="" pointer-events="none" display="none"/></g><g transform="translate(0,182)"><path class="background" aria-hidden="true" d="M0,0h108.2705078125v11h-108.2705078125Z" pointer-events="none" opacity="1"/><g><g class="mark-symbol role-legend-symbol" pointer-events="none"><path transform="translate(6,6)" d="M-5,0L5,0" stroke="#54a24b" stroke-width="1.5" opacity="1"/></g><g class="mark-text role-legend-label" pointer-events="none"><text text-anchor="start" transform="translate(16,9)" font-family="sans-serif" font-size="10px" fill="#000" opacity="1">Minas Gerais</text></g></g><path class="foreground" aria-hidden="true" d="" pointer-events="none" display="none"/></g><g transform="translate(0,195)"><path class="background" aria-hidden="true" d="M0,0h108.2705078125v11h-108.2705078125Z" pointer-events="none" opacity="1"/><g><g class="mark-symbol role-legend-symbol" pointer-events="none"><path transform="translate(6,6)" d="M-5,0L5,0" stroke="#eeca3b" stroke-width="1.5" opacity="1"/></g><g class="mark-text role-legend-label" pointer-events="none"><text text-anchor="start" transform="translate(16,9)" font-family="sans-serif" font-size="10px" fill="#000" opacity="1">Nordeste</text></g></g><path class="foreground" aria-hidden="true" d="" pointer-events="none" display="none"/></g><g transform="translate(0,208)"><path class="background" aria-hidden="true" d="M0,0h108.2705078125v11h-108.2705078125Z" pointer-events="none" opacity="1"/><g><g class="mark-symbol role-legend-symbol" pointer-events="none"><path transform="translate(6,6)" d="M-5,0L5,0" stroke="#b279a2" stroke-width="1.5" opacity="1"/></g><g class="mark-text role-legend-label" pointer-events="none"><text text-anchor="start" transform="translate(16,9)" font-family="sans-serif" font-size="10px" fill="#000" opacity="1">Norte</text></g></g><path class="foreground" aria-hidden="true" d="" pointer-events="none" display="none"/></g><g transform="translate(0,221)"><path class="background" aria-hidden="true" d="M0,0h108.2705078125v11h-108.2705078125Z" pointer-events="none" opacity="1"/><g><g class="mark-symbol role-legend-symbol" pointer-events="none"><path transform="translate(6,6)" d="M-5,0L5,0" stroke="#ff9da6" stroke-width="1.5" opacity="1"/></g><g class="mark-text role-legend-label" pointer-events="none"><text text-anchor="start" transform="translate(16,9)" font-family="sans-serif" font-size="10px" fill="#000" opacity="1">Paraná</text></g></g><path class="foreground" aria-hidden="true" d="" pointer-events="none" display="none"/></g><g transform="translate(0,234)"><path class="background" aria-hidden="true" d="M0,0h108.2705078125v11h-108.2705078125Z" pointer-events="none" opacity="1"/><g><g class="mark-symbol role-legend-symbol" pointer-events="none"><path transform="translate(6,6)" d="M-5,0L5,0" stroke="#9d755d" stroke-width="1.5" opacity="1"/></g><g class="mark-text role-legend-label" pointer-events="none"><text text-anchor="start" transform="translate(16,9)" font-family="sans-serif" font-size="10px" fill="#000" opacity="1">Paraíba</text></g></g><path class="foreground" aria-hidden="true" d="" pointer-events="none" display="none"/></g><g transform="translate(0,247)"><path class="background" aria-hidden="true" d="M0,0h108.2705078125v11h-108.2705078125Z" pointer-events="none" opacity="1"/><g><g class="mark-symbol role-legend-symbol" pointer-events="none"><path transform="translate(6,6)" d="M-5,0L5,0" stroke="#bab0ac" stroke-width="1.5" opacity="1"/></g><g class="mark-text role-legend-label" pointer-events="none"><text text-anchor="start" transform="translate(16,9)" font-family="sans-serif" font-size="10px" fill="#000" opacity="1">Pará</text></g></g><path class="foreground" aria-hidden="true" d="" pointer-events="none" display="none"/></g><g transform="translate(0,260)"><path class="background" aria-hidden="true" d="M0,0h108.2705078125v11h-108.2705078125Z" pointer-events="none" opacity="1"/><g><g class="mark-symbol role-legend-symbol" pointer-events="none"><path transform="translate(6,6)" d="M-5,0L5,0" stroke="#4c78a8" stroke-width="1.5" opacity="1"/></g><g class="mark-text role-legend-label" pointer-events="none"><text text-anchor="start" transform="translate(16,9)" font-family="sans-serif" font-size="10px" fill="#000" opacity="1">Pernambuco</text></g></g><path class="foreground" aria-hidden="true" d="" pointer-events="none" display="none"/></g><g transform="translate(0,273)"><path class="background" aria-hidden="true" d="M0,0h108.2705078125v11h-108.2705078125Z" pointer-events="none" opacity="1"/><g><g class="mark-symbol role-legend-symbol" pointer-events="none"><path transform="translate(6,6)" d="M-5,0L5,0" stroke="#f58518" stroke-width="1.5" opacity="1"/></g><g class="mark-text role-legend-label" pointer-events="none"><text text-anchor="start" transform="translate(16,9)" font-family="sans-serif" font-size="10px" fill="#000" opacity="1">Piauí</text></g></g><path class="foreground" aria-hidden="true" d="" pointer-events="none" display="none"/></g><g transform="translate(0,286)"><path class="background" aria-hidden="true" d="M0,0h108.2705078125v11h-108.2705078125Z" pointer-events="none" opacity="1"/><g><g class="mark-symbol role-legend-symbol" pointer-events="none"><path transform="translate(6,6)" d="M-5,0L5,0" stroke="#e45756" stroke-width="1.5" opacity="1"/></g><g class="mark-text role-legend-label" pointer-events="none"><text text-anchor="start" transform="translate(16,9)" font-family="sans-serif" font-size="10px" fill="#000" opacity="1">Rio Grande do Norte</text></g></g><path class="foreground" aria-hidden="true" d="" pointer-events="none" display="none"/></g><g transform="translate(0,299)"><path class="background" aria-hidden="true" d="M0,0h108.2705078125v11h-108.2705078125Z" pointer-events="none" opacity="1"/><g><g class="mark-symbol role-legend-symbol" pointer-events="none"><path transform="translate(6,6)" d="M-5,0L5,0" stroke="#72b7b2" stroke-width="1.5" opacity="1"/></g><g class="mark-text role-legend-label" pointer-events="none"><text text-anchor="start" transform="translate(16,9)" font-family="sans-serif" font-size="10px" fill="#000" opacity="1">Rio Grande do Sul</text></g></g><path class="foreground" aria-hidden="true" d="" pointer-events="none" display="none"/></g><g transform="translate(0,312)"><path class="background" aria-hidden="true" d="M0,0h108.2705078125v11h-108.2705078125Z" pointer-events="none" opacity="1"/><g><g class="mark-symbol role-legend-symbol" pointer-events="none"><path transform="translate(6,6)" d="M-5,0L5,0" stroke="#54a24b" stroke-width="1.5" opacity="1"/></g><g class="mark-text role-legend-label" pointer-events="none"><text text-anchor="start" transform="translate(16,9)" font-family="sans-serif" font-size="10px" fill="#000" opacity="1">Rio de Janeiro</text></g></g><path class="foreground" aria-hidden="true" d="" pointer-events="none" display="none"/></g><g transform="translate(0,325)"><path class="background" aria-hidden="true" d="M0,0h108.2705078125v11h-108.2705078125Z" pointer-events="none" opacity="1"/><g><g class="mark-symbol role-legend-symbol" pointer-events="none"><path transform="translate(6,6)" d="M-5,0L5,0" stroke="#eeca3b" stroke-width="1.5" opacity="1"/></g><g class="mark-text role-legend-label" pointer-events="none"><text text-anchor="start" transform="translate(16,9)" font-family="sans-serif" font-size="10px" fill="#000" opacity="1">Rondônia</text></g></g><path class="foreground" aria-hidden="true" d="" pointer-events="none" display="none"/></g><g transform="translate(0,338)"><path class="background" aria-hidden="true" d="M0,0h108.2705078125v11h-108.2705078125Z" pointer-events="none" opacity="1"/><g><g class="mark-symbol role-legend-symbol" pointer-events="none"><path transform="translate(6,6)" d="M-5,0L5,0" stroke="#b279a2" stroke-width="1.5" opacity="1"/></g><g class="mark-text role-legend-label" pointer-events="none"><text text-anchor="start" transform="translate(16,9)" font-family="sans-serif" font-size="10px" fill="#000" opacity="1">Roraima</text></g></g><path class="foreground" aria-hidden="true" d="" pointer-events="none" display="none"/></g><g transform="translate(0,351)"><path class="background" aria-hidden="true" d="M0,0h108.2705078125v11h-108.2705078125Z" pointer-events="none" opacity="1"/><g><g class="mark-symbol role-legend-symbol" pointer-events="none"><path transform="translate(6,6)" d="M-5,0L5,0" stroke="#ff9da6" stroke-width="1.5" opacity="1"/></g><g class="mark-text role-legend-label" pointer-events="none"><text text-anchor="start" transform="translate(16,9)" font-family="sans-serif" font-size="10px" fill="#000" opacity="1">Santa Catarina</text></g></g><path class="foreground" aria-hidden="true" d="" pointer-events="none" display="none"/></g><g transform="translate(0,364)"><path class="background" aria-hidden="true" d="M0,0h108.2705078125v11h-108.2705078125Z" pointer-events="none" opacity="1"/><g><g class="mark-symbol role-legend-symbol" pointer-events="none"><path transform="translate(6,6)" d="M-5,0L5,0" stroke="#9d755d" stroke-width="1.5" opacity="1"/></g><g class="mark-text role-legend-label" pointer-events="none"><text text-anchor="start" transform="translate(16,9)" font-family="sans-serif" font-size="10px" fill="#000" opacity="1">Sergipe</text></g></g><path class="foreground" aria-hidden="true" d="" pointer-events="none" display="none"/></g><g transform="translate(0,377)"><path class="background" aria-hidden="true" d="M0,0h108.2705078125v11h-108.2705078125Z" pointer-events="none" opacity="1"/><g><g class="mark-symbol role-legend-symbol" pointer-events="none"><path transform="translate(6,6)" d="M-5,0L5,0" stroke="#bab0ac" stroke-width="1.5" opacity="1"/></g><g class="mark-text role-legend-label" pointer-events="none"><text text-anchor="start" transform="translate(16,9)" font-family="sans-serif" font-size="10px" fill="#000" opacity="1">…4 entries</text></g></g><path class="foreground" aria-hidden="true" d="" pointer-events="none" display="none"/></g></g></g><path class="foreground" aria-hidden="true" d="" pointer-events="none" display="none"/></g></g><g class="mark-text role-legend-title" pointer-events="none"><text text-anchor="start" transform="translate(0,9)" font-family="sans-serif" font-size="11px" font-weight="bold" fill="#000" opacity="1">Brasil, Grande Região e Unidad…</text></g></g><path class="foreground" aria-hidden="true" d="" pointer-events="none" display="none"/></g></g></g><path class="foreground" aria-hidden="true" d="" display="none"/></g></g></g><defs><clipPath id="clip1"><rect x="0" y="0" width="680" height="300"/></clipPath><clipPath id="clip2"><rect x="0" y="0" width="680" height="300"/></clipPath><clipPath id="clip3"><rect x="0" y="0" width="680" height="300"/></clipPath><clipPath id="clip4"><rect x="0" y="0" width="680" height="300"/></clipPath><clipPath id="clip5"><rect x="0" y="0" width="680" height="300"/></clipPath><clipPath id="clip6"><rect x="0" y="0" width="680" height="300"/></clipPath><clipPath id="clip7"><rect x="0" y="0" width="680" height="300"/></clipPath><clipPath id="clip8"><rect x="0" y="0" width="680" height="300"/></clipPath><clipPath id="clip9"><rect x="0" y="0" width="680" height="300"/></clipPath><clipPath id="clip10"><rect x="0" y="0" width="680" height="300"/></clipPath><clipPath id="clip11"><rect x="0" y="0" width="680" height="300"/></clipPath><clipPath id="clip12"><rect x="0" y="0" width="680" height="300"/></clipPath><clipPath id="clip13"><rect x="0" y="0" width="680" height="300"/></clipPath><clipPath id="clip14"><rect x="0" y="0" width="680" height="300"/></clipPath><clipPath id="clip15"><rect x="0" y="0" width="680" height="300"/></clipPath><clipPath id="clip16"><rect x="0" y="0" width="680" height="300"/></clipPath><clipPath id="clip17"><rect x="0" y="0" width="680" height="300"/></clipPath><clipPath id="clip18"><rect x="0" y="0" width="680" height="300"/></clipPath><clipPath id="clip19"><rect x="0" y="0" width="680" height="300"/></clipPath><clipPath id="clip20"><rect x="0" y="0" width="680" height="300"/></clipPath><clipPath id="clip21"><rect x="0" y="0" width="680" height="300"/></clipPath><clipPath id="clip22"><rect x="0" y="0" width="680" height="300"/></clipPath><clipPath id="clip23"><rect x="0" y="0" width="680" height="300"/></clipPath><clipPath id="clip24"><rect x="0" y="0" width="680" height="300"/></clipPath><clipPath id="clip25"><rect x="0" y="0" width="680" height="300"/></clipPath><clipPath id="clip26"><rect x="0" y="0" width="680" height="300"/></clipPath><clipPath id="clip27"><rect x="0" y="0" width="680" height="300"/></clipPath><clipPath id="clip28"><rect x="0" y="0" width="680" height="300"/></clipPath><clipPath id="clip29"><rect x="0" y="0" width="680" height="300"/></clipPath><clipPath id="clip30"><rect x="0" y="0" width="680" height="300"/></clipPath><clipPath id="clip31"><rect x="0" y="0" width="680" height="300"/></clipPath><clipPath id="clip32"><rect x="0" y="0" width="680" height="300"/></clipPath><clipPath id="clip33"><rect x="0" y="0" width="680" height="300"/></clipPath></defs></svg>